<svg width="151" height="80" viewBox="0 0 151 80" fill="none" xmlns="http://www.w3.org/2000/svg">
<path d="M49.3169 39.1864C53.6637 39.6637 59.497 35.9233 63.5219 36.9046C59.7624 35.5887 54.4738 37.899 49.563 37.6775C49.563 37.6775 47.2646 37.742 46.0845 37.3957C46.2085 37.6775 46.5978 38.8905 49.3169 39.1864Z" fill="#CDA147"/>
<path d="M36.0438 25.5817C35.4431 28.1071 38.3424 29.8397 40.5077 30.7693C50.4359 35.0381 61.112 32.0271 67.7243 37.0992C65.0239 33.443 56.0736 32.4094 49.8137 31.445C44.8197 30.6796 42.5079 29.644 39.2228 27.3758C38.5582 26.9143 37.0154 25.4735 36.0446 25.5826" fill="#CDA147"/>
<path d="M69.5452 31.9792C67.0239 30.2378 61.7215 28.2278 60.3807 27.6609C59.0358 27.0962 51.8387 24.2256 48.2045 21.7033C44.3152 19.0032 42.0419 17.0527 39.8615 12.6037C37.4642 7.72097 37.7674 2.53647 38.1719 0.180761C37.2744 0.236125 35.0088 3.02118 35.6233 7.48346C36.0168 10.3172 37.5362 21.4184 54.6964 27.476C60.9872 29.5087 66.3551 31.7356 68.0646 32.8678C69.3919 33.7467 71.9832 35.3284 71.8746 38.8905C71.8085 41.03 70.0122 42.1016 69.0527 41.4633C69.2588 41.3093 69.4222 41.105 69.5274 40.8696C69.6325 40.6343 69.6759 40.3758 69.6534 40.1188C69.631 39.8618 69.5434 39.6149 69.399 39.4016C69.2546 39.1883 69.0582 39.0157 68.8286 38.9002C68.5989 38.7847 68.3437 38.7303 68.0872 38.742C67.8307 38.7537 67.5814 38.8313 67.3632 38.9672C67.1449 39.1031 66.965 39.293 66.8405 39.5186C66.716 39.7442 66.651 39.9981 66.6519 40.2561C66.651 40.3538 66.6602 40.4514 66.6795 40.5473C66.8131 41.8378 68.1465 42.8523 69.7725 42.8523C71.4875 42.8523 72.8311 41.502 73.2821 39.835C73.475 39.112 74.1173 35.1336 69.5438 31.9795" fill="#CDA147"/>
<path d="M33.2803 13.2172C33.2803 13.2172 34.2028 13.2637 34.8443 14.5606C35.4858 15.8574 37.0572 20.2588 44.7877 25.401C48.2839 27.5305 51.276 28.7781 59.2837 30.8152C62.8727 31.7415 69.7253 33.8796 70.6498 38.4587C69.1146 36.2328 66.9424 34.5282 64.421 33.5707C61.4289 32.4136 59.3146 31.9347 56.0937 31.1967C52.8728 30.4531 45.6229 29.1798 39.1252 24.1932C34.3403 20.3394 32.7763 16.4606 33.2803 13.2169" fill="#CDA147"/>
<path d="M64.4505 36.3012C60.3887 34.0991 52.3482 35.066 46.6719 34.2707C44.5577 33.9729 42.704 33.1123 40.9995 33.5261C41.5073 35.3376 43.7572 35.8497 45.5246 36.1027C51.5982 36.9846 59.2763 34.5373 64.6288 36.4122C64.5737 36.3762 64.5109 36.3363 64.4505 36.3015" fill="#CDA147"/>
<path d="M101.994 39.1864C97.6432 39.6637 91.8099 35.9233 87.7869 36.9046C91.5445 35.5887 96.8334 37.899 101.742 37.6775C101.742 37.6775 104.043 37.742 105.223 37.3957C105.099 37.6775 104.709 38.8905 101.994 39.1864Z" fill="#CDA147"/>
<path d="M115.265 25.5817C115.866 28.1071 112.967 29.8397 110.798 30.7693C100.876 35.0381 90.1961 32.0271 83.5837 37.0992C86.2841 33.443 95.2344 32.4094 101.494 31.445C106.491 30.6796 108.802 29.644 112.083 27.3758C112.75 26.9143 114.292 25.4735 115.265 25.5826" fill="#CDA147"/>
<path d="M81.7599 31.9792C84.2833 30.2378 89.5854 28.2278 90.9284 27.6609C92.2715 27.094 99.4688 24.2256 103.103 21.7033C106.99 19.0032 109.265 17.0527 111.445 12.6037C113.843 7.72097 113.54 2.53647 113.135 0.180761C114.031 0.236125 116.298 3.02118 115.684 7.48346C115.29 10.3172 113.773 21.4184 96.6124 27.476C90.3178 29.5087 84.9518 31.7356 83.2443 32.8678C81.9169 33.7467 79.324 35.3284 79.4307 38.8905C79.4965 41.03 81.295 42.1016 82.2542 41.4633C82.0482 41.3093 81.8849 41.1049 81.7798 40.8696C81.6747 40.6342 81.6313 40.3758 81.6538 40.1188C81.6763 39.8619 81.7639 39.615 81.9083 39.4017C82.0528 39.1884 82.2491 39.0158 82.4787 38.9004C82.7083 38.7849 82.9636 38.7305 83.2201 38.7422C83.4765 38.7539 83.7258 38.8315 83.944 38.9674C84.1622 39.1033 84.3422 39.2931 84.4667 39.5187C84.5912 39.7443 84.6562 39.9981 84.6553 40.2561C84.6542 40.3537 84.645 40.4511 84.6278 40.5473C84.4941 41.8378 83.1624 42.8523 81.5326 42.8523C79.8156 42.8523 78.474 41.502 78.0232 39.835C77.8273 39.112 77.1899 35.1336 81.7593 31.9795" fill="#CDA147"/>
<path d="M118.027 13.2172C118.027 13.2172 117.106 13.2637 116.463 14.5606C115.815 15.8574 114.252 20.2588 106.521 25.401C103.022 27.5305 100.031 28.7781 92.0254 30.8152C88.4323 31.7415 81.5835 33.8796 80.6574 38.4587C82.1935 36.233 84.3661 34.5285 86.8878 33.5707C89.8783 32.4136 91.9921 31.9347 95.2151 31.1967C98.436 30.4531 105.682 29.1798 112.182 24.1932C116.968 20.3394 118.533 16.4606 118.027 13.2169" fill="#CDA147"/>
<path d="M86.8567 36.3012C90.9188 34.0991 98.9574 35.066 104.633 34.2707C106.75 33.9729 108.601 33.1123 110.306 33.5261C109.798 35.3376 107.548 35.8497 105.781 36.1027C99.709 36.9846 92.0312 34.5373 86.6784 36.4122C86.7335 36.3762 86.7966 36.3363 86.8567 36.3015" fill="#CDA147"/>
<path d="M75.6342 13.8752C75.0605 21.7426 74.1068 28.9423 71.8958 32.1174C74.8571 34.2162 75.5606 36.6572 75.64 38.261C75.7097 36.658 76.3958 34.2491 79.3802 32.1323C76.735 28.8936 75.64 13.9701 75.6328 13.8743" fill="#CDA147"/>
<path d="M1.4505 55.071C1.93657 55.071 4.03569 55.1491 4.15224 55.1491C4.2688 55.1491 4.44377 55.3248 4.4829 55.4226C4.5606 55.7154 4.77443 56.1841 5.18251 57.141C5.61016 58.1376 7.88426 62.9013 8.44803 63.956C8.48688 64.0338 8.60344 64.0144 8.71999 63.7799C8.85639 63.5261 11.6163 57.9612 12.0817 57.0433C12.3494 56.5322 12.5832 56.0038 12.7816 55.4616C12.8108 55.3852 12.8578 55.3169 12.9187 55.2625C12.9796 55.2082 13.0526 55.1693 13.1315 55.1491C13.4622 55.1491 15.0168 55.0516 15.639 55.0516C15.8335 55.0516 16.2612 55.1297 16.2612 55.4226C16.2612 55.5983 16.1443 55.6958 15.6586 55.8131C14.4922 56.067 14.2202 56.4183 14.2202 56.7504C14.2202 59.9136 14.356 63.2529 14.434 64.5611C14.4922 65.9867 14.8614 66.1428 15.6586 66.4158C16.0862 66.5525 16.2612 66.7283 16.2612 66.8451C16.2612 67.0406 16.0666 67.1967 15.6974 67.1967C15.464 67.1967 13.6176 67.0796 13.0929 67.0796C12.5096 67.0796 12.1404 67.1383 11.6739 67.1383C11.3628 67.1383 11.0712 67.0015 11.0712 66.8061C11.0712 66.591 11.3239 66.4545 11.7326 66.3568C12.4322 66.1617 12.5487 65.9466 12.5683 64.8728C12.5879 64.3648 12.5879 60.0886 12.5879 58.2143C12.5879 58.0775 12.3738 58.1749 12.3545 58.2143C11.9461 58.9561 9.84698 63.5059 9.55545 64.1105C9.32206 64.5988 8.71944 65.9651 8.52518 66.5318C8.36977 67.0007 8.07824 67.2155 7.84485 67.2155C7.66988 67.2155 7.49518 66.8833 7.35879 66.5511C7.12568 66.0435 6.56191 64.4421 6.36682 63.9344C5.64764 62.1575 4.42311 59.6579 3.85933 58.2716C3.84005 58.2519 3.68464 58.0958 3.66508 58.2519C3.4901 59.9704 3.31513 63.8367 3.31513 64.8327C3.31513 66.0042 3.56781 66.1215 4.48152 66.3552C4.92846 66.4529 5.00506 66.6287 5.00506 66.8044C5.00506 67.019 4.6744 67.1366 4.38315 67.1366C4.11091 67.1366 3.43058 67.0779 2.86764 67.0779C2.24545 67.0779 1.00163 67.1756 0.748957 67.1756C0.379448 67.1756 0.12677 67.0779 0.12677 66.8241C0.12677 66.6483 0.262892 66.5116 0.729393 66.3945C1.62354 66.1797 2.03163 65.7113 2.16775 64.8911C2.40114 63.5435 2.88693 57.8223 2.88693 57.3534C2.88693 56.2405 2.69267 56.0246 1.40972 55.7916C1.11819 55.7522 0.88618 55.6155 0.88618 55.479C0.886731 55.2662 1.21711 55.071 1.4505 55.071Z" fill="#1A1818"/>
<path d="M18.4016 55.0516C19.0042 55.0516 19.9372 55.1491 20.5784 55.1491C21.4326 55.1491 22.0557 55.0907 22.3276 55.0907C22.7553 55.0907 22.9302 55.2468 22.9302 55.4419C22.9302 55.6177 22.6387 55.7938 22.3472 55.8522C21.3552 56.0476 21.2199 56.2231 21.1419 57.3168C21.0642 58.3709 21.0838 60.2652 21.1615 62.1201C21.2392 64.0338 21.6669 64.6392 22.1535 65.1859C22.6588 65.7329 23.7668 66.2012 24.7194 66.2012C26.3908 66.2012 27.7322 65.2836 28.043 62.7842C28.1599 61.9444 28.1987 59.7392 28.1987 58.6043C28.1987 56.3588 28.043 56.1049 26.7992 55.8511C26.4104 55.7727 26.255 55.5776 26.255 55.4408C26.255 55.2847 26.4479 55.0895 26.8576 55.0895C27.2674 55.0895 29.3651 55.148 30.1036 55.148C30.6478 55.148 30.8616 54.8941 30.8616 54.7186C30.8616 54.4255 30.6089 54.2109 30.2003 53.9958C30.1181 53.9446 30.0478 53.8763 29.9941 53.7955C29.9404 53.7146 29.9047 53.6231 29.8892 53.5272C29.9044 53.4211 29.9417 53.3194 29.9987 53.2288C30.0556 53.1381 30.131 53.0606 30.2199 53.0013C30.4996 52.7604 30.8455 52.6106 31.2118 52.5716C31.4838 52.5716 32.0476 52.8842 32.0476 53.8801C32.0476 54.9149 31.5034 55.52 30.5321 55.8912C29.5213 56.2621 29.4045 56.477 29.3268 57.0815C29.288 57.316 29.191 59.7567 29.113 61.2615C28.9576 64.1514 28.4329 65.4012 27.4804 66.3189C26.6832 67.0998 25.381 67.432 24.2341 67.432C22.7765 67.432 21.2031 66.8266 20.4244 65.8112C19.336 64.3659 19.3749 62.3549 19.3749 61.1247C19.3749 59.27 19.2972 57.7475 19.2583 56.9262C19.2194 56.1049 18.8695 56.0086 18.1308 55.8134C17.7422 55.7157 17.5866 55.5596 17.5866 55.3838C17.5852 55.11 17.8767 55.0516 18.4016 55.0516Z" fill="#1A1818"/>
<path d="M41.1833 55.5397C41.8544 55.8084 42.5623 55.9729 43.2827 56.0277C43.7881 56.0277 44.0212 55.7738 44.0212 55.5787C44.0212 55.2858 43.7685 55.0907 43.3599 54.8759C43.2777 54.8246 43.2073 54.7563 43.1537 54.6755C43.1 54.5946 43.0642 54.5031 43.0488 54.4072C43.0693 54.2877 43.1145 54.1739 43.1815 54.073C43.2484 53.9721 43.3357 53.8864 43.4376 53.8215C43.7074 53.6083 44.03 53.4731 44.3706 53.4306C44.6428 53.4306 45.2063 53.7628 45.2063 54.7593C45.2063 56.088 43.9236 56.8487 43.0295 57.0051C42.9711 57.0051 42.9711 57.1612 43.0099 57.1989C43.8641 58.2533 44.2345 59.5225 44.2345 61.0652C44.2277 62.1926 43.926 63.2984 43.3597 64.2717C42.7933 65.2451 41.9823 66.0517 41.0078 66.6109C40.0101 67.1501 38.8947 67.4319 37.7619 67.4311C34.1268 67.4311 31.3085 64.619 31.3085 61.1629C31.3165 59.546 31.9429 57.994 33.058 56.828C34.3112 55.5738 35.9937 54.8475 37.7619 54.7972C38.9674 54.7978 39.9392 55.11 41.1833 55.5397ZM34.8661 56.7504C34.0304 57.6291 33.4278 58.9766 33.4278 60.9304C33.4278 63.6642 35.2354 66.5932 38.2093 66.5932C39.0908 66.6087 39.9453 66.2877 40.6003 65.6949C41.3776 64.9531 42.097 63.5275 42.097 61.1455C42.097 58.3723 40.2892 55.6191 37.4127 55.6191C36.4795 55.6177 35.4492 56.1841 34.8661 56.7504ZM37.1989 51.3608C37.8151 51.9263 38.3991 52.5261 38.9484 53.1574C39.132 53.3313 39.2432 53.5687 39.2595 53.8217C39.201 54.0363 38.8122 54.1143 38.4234 53.9385C37.7238 53.5873 36.2466 52.689 35.9744 52.5326C35.8878 52.4726 35.8152 52.3946 35.7616 52.3038C35.7079 52.213 35.6743 52.1117 35.6633 52.0066C35.6633 51.6745 36.2463 51.0303 36.5574 51.0303C36.8019 51.0657 37.0277 51.182 37.1989 51.3608Z" fill="#1A1818"/>
<path d="M46.5301 55.0311C47.3077 55.0311 48.8044 55.1482 49.3875 55.1482C49.4848 55.1482 49.7567 55.4021 49.7763 55.4411C50.3417 56.2415 50.9654 56.9986 51.6423 57.7063C52.6723 58.8194 56.3266 63.0176 57.0653 63.701C57.1238 63.7597 57.2403 63.662 57.2596 63.5646C57.2985 63.174 57.3957 59.6396 57.2985 58.0579C57.2015 56.4174 57.1819 56.1636 55.8601 55.871C55.3936 55.7733 55.3159 55.5588 55.3159 55.4414C55.3159 55.3049 55.4909 55.1291 55.899 55.1291C56.6765 55.1291 56.7532 55.1485 57.2596 55.1485C58.0565 55.1485 59.0675 55.0314 59.456 55.0314C59.8644 55.0314 60.0586 55.2269 60.0586 55.383C60.0586 55.5001 60.0002 55.6368 59.3394 55.832C58.6781 56.0471 58.4064 56.379 58.3676 56.8086C58.3092 57.4331 58.1926 61.5535 58.1926 63.4475C58.1926 64.3056 58.2317 65.6149 58.2317 66.5132C58.2317 67.3334 58.0565 67.4702 57.8234 67.4702C57.5207 67.3703 57.2604 67.1708 57.0846 66.9038C56.5988 66.2007 55.5881 64.9121 55.0439 64.3067C54.3052 63.4486 50.5525 59.1125 49.6983 58.1752C49.5815 58.0778 49.5038 58.1946 49.4845 58.369C49.4649 58.7989 49.4068 59.6385 49.4068 60.4781C49.4068 61.3567 49.4649 63.5048 49.4845 64.0318C49.5426 65.7503 49.6399 65.9455 50.7286 66.2973C51.1755 66.4338 51.3698 66.5705 51.3698 66.8232C51.3698 67.0577 51.0005 67.1554 50.7479 67.1554C50.2037 67.1554 49.8149 67.0774 49.3484 67.0774C48.4347 67.0774 47.2492 67.1945 46.9966 67.1945C46.6855 67.1945 46.3744 67.1164 46.3744 66.8623C46.3744 66.6865 46.5494 66.5301 46.8979 66.4327C48.1613 66.1005 48.2779 65.6125 48.3363 64.8316C48.4333 63.523 48.589 57.9388 48.589 57.3138C48.589 57.0599 48.4528 56.7668 47.9276 56.2785C47.6557 55.9859 47.0734 55.8491 46.7031 55.7708C46.3923 55.732 46.1201 55.4976 46.1201 55.2828C46.122 55.1297 46.2774 55.0311 46.5301 55.0311Z" fill="#1A1818"/>
<path d="M70.7309 55.2468C71.1392 55.3639 71.2362 55.3055 71.5669 55.3835C71.8584 55.4419 71.9168 55.4812 72.0138 55.7738C72.3052 56.5036 72.4818 57.2744 72.5374 58.0587C72.5374 58.2151 72.4597 58.547 72.2067 58.547C72.0122 58.547 71.8568 58.4296 71.6832 58.0977C71.4485 57.5847 71.1108 57.126 70.6912 56.7504C69.8964 56.0293 68.8658 55.6262 67.7949 55.6177C64.7824 55.6177 63.0329 58.1367 63.0329 61.0073C63.0329 64.0144 65.1127 66.5714 68.2407 66.5714C68.5907 66.5714 69.5041 66.5127 69.9318 66.1808C70.2749 65.7942 70.4624 65.293 70.4575 64.7751C70.4575 64.0329 70.438 62.9788 70.4187 62.725C70.3798 62.4318 70.2049 62.3147 69.505 62.178C68.7469 62.0609 68.6888 61.8655 68.6888 61.6703C68.6888 61.5532 68.9415 61.3578 69.3501 61.3578C69.8943 61.3578 70.3997 61.4165 71.0411 61.4165C71.6242 61.4165 72.6545 61.3188 73.0433 61.3188C73.3541 61.3188 73.5486 61.4558 73.5486 61.6897C73.5486 61.8071 73.3541 61.9828 72.9849 62.0999C72.3629 62.3147 72.2852 62.5686 72.2657 62.8224C72.2268 63.2714 72.2268 63.1153 72.2268 64.8925C72.2477 65.2133 72.2866 65.5327 72.3434 65.8491C72.366 65.9649 72.3789 66.0824 72.3822 66.2004C72.3641 66.2725 72.3303 66.3397 72.2833 66.3971C72.2363 66.4545 72.1772 66.5008 72.1103 66.5326C71.5269 66.7086 71.3715 66.9038 70.5162 67.0796C69.6904 67.2948 68.8424 67.4127 67.9895 67.4311C65.1904 67.4311 63.1495 66.3181 62.0803 64.8731C61.268 63.7587 60.8444 62.4062 60.8754 61.0253C60.8738 60.0969 61.0935 59.1817 61.5163 58.3561C61.939 57.5305 62.5524 56.8187 63.3051 56.2801C64.67 55.3129 66.2997 54.7946 67.9699 54.7964C68.9073 54.8089 69.8377 54.9607 70.7309 55.2468Z" fill="#1A1818"/>
<path d="M88.8089 55.1491C89.8976 55.1491 90.2473 55.0907 90.4223 54.9149C90.6361 54.7391 90.7722 54.6024 90.8891 54.6024C90.9469 54.6024 91.258 54.8368 91.258 54.9736C91.1211 55.8263 91.0432 56.6875 91.0249 57.551C91.0249 57.8245 90.832 58.0977 90.6165 58.0977C90.4011 58.0977 90.2859 57.8245 90.2473 57.6487C89.9753 56.4183 89.586 56.2231 89.0625 56.1644C88.7707 56.1257 87.8776 56.0864 86.2243 56.0864C86.1641 56.1034 86.1092 56.1356 86.0649 56.1801C86.0207 56.2245 85.9885 56.2797 85.9716 56.3402C85.9135 56.8662 85.8744 59.2305 85.8744 60.4606C85.8744 61.6509 85.8744 63.448 85.9524 64.5611C86.0493 65.9673 86.3797 66.0061 87.3519 66.3967C87.7015 66.5332 87.9156 66.6115 87.9156 66.8457C87.9156 67.0021 87.7211 67.1779 87.3323 67.1779C87.1378 67.1779 85.719 67.0801 84.5526 67.0801C83.4057 67.0801 82.9199 67.1388 82.395 67.1388C81.9869 67.1388 81.7927 66.9827 81.7927 66.7676C81.7927 66.6115 81.9856 66.475 82.3366 66.3773C83.7168 66.0061 84.0475 65.9474 84.0475 64.6195C84.0475 64.2098 84.1056 62.1788 84.1056 59.0934V56.5354C84.1056 56.3015 83.9695 56.0864 83.9111 56.0864C83.4256 56.0864 81.3843 56.067 81.1316 56.067C80.8401 56.067 80.3155 56.3015 79.8682 57.512C79.7517 57.8442 79.5767 58.0587 79.421 58.0587C79.1105 58.0587 79.0325 57.7852 79.0521 57.3168C79.155 56.527 79.2005 55.7307 79.1879 54.9343C79.1684 54.7585 79.5186 54.583 79.596 54.583C79.7097 54.6079 79.8122 54.6695 79.8878 54.7585C80.1791 55.0123 80.3932 55.0907 80.9569 55.11C81.7535 55.1491 81.5788 55.1491 82.2008 55.1491H88.8089Z" fill="#1A1818"/>
<path d="M96.527 60.3239C98.4319 60.3239 101.561 60.2846 102.727 60.3432C102.785 60.3432 102.98 60.1675 102.98 60.07C102.98 59.5441 102.98 56.9846 102.902 56.5747C102.902 56.2425 102.26 56.0083 101.833 55.8912C101.191 55.7154 101.055 55.5787 101.055 55.4419C101.055 55.2482 101.23 55.0906 101.638 55.0906C102.435 55.0906 103.232 55.1491 103.971 55.1491C104.729 55.1491 105.545 55.071 105.934 55.071C106.323 55.071 106.478 55.2274 106.478 55.4032C106.478 55.579 106.323 55.696 105.817 55.8134C105.021 55.9892 104.846 56.2624 104.825 56.7311C104.786 57.4536 104.747 59.1914 104.747 61.0076C104.747 62.6868 104.747 64.3466 104.825 65.1081C104.922 66.0457 105.156 66.1237 106.03 66.3579C106.458 66.4556 106.652 66.6508 106.652 66.8266C106.652 67.0414 106.458 67.1391 106.089 67.1391C105.72 67.1391 104.786 67.0804 104.067 67.0804C103.056 67.0804 102.318 67.1391 101.735 67.1391C101.268 67.1391 101.054 67.0023 101.054 66.8459C101.054 66.6508 101.229 66.4753 101.676 66.3579C102.687 66.1237 102.823 65.9089 102.901 65.0691C102.996 64.0828 103.022 63.091 102.978 62.101C102.94 61.4176 102.784 61.3785 102.765 61.3785C99.849 61.3785 96.8169 61.3785 96.4474 61.437C96.3115 61.437 96.2146 61.6324 96.2146 61.6908C96.2146 64.3075 96.2338 64.991 96.2727 65.2839C96.3697 65.9089 96.6034 66.1041 97.7306 66.436C97.9637 66.4947 98.1776 66.6898 98.1776 66.8459C98.1776 67.061 98.0026 67.1391 97.5162 67.1391C96.9525 67.1391 96.4085 67.0804 95.5725 67.0804C94.9506 67.0804 93.8234 67.1781 93.2403 67.1781C92.8124 67.1781 92.6181 67.0998 92.6181 66.8853C92.6181 66.6707 92.8319 66.514 93.2012 66.4166C94.1931 66.1628 94.348 65.8907 94.386 65.0497C94.4444 64.1916 94.4444 61.7885 94.4444 58.9769C94.4444 57.5122 94.4056 56.8094 94.3279 56.5356C94.2502 56.2034 94.0945 56.0479 93.0254 55.7547C92.8115 55.696 92.5977 55.5789 92.5977 55.3641C92.5977 55.1884 92.8504 55.0713 93.2196 55.0713C94.3472 55.0713 95.0468 55.1493 95.5717 55.1493C96.1743 55.1493 96.4463 55.0909 97.1269 55.0909C97.4377 55.0909 97.6504 55.2077 97.6504 55.4231C97.6504 55.5792 97.3978 55.7356 97.1646 55.7943C96.5232 55.9895 96.2124 56.204 96.2124 56.9265C96.2124 57.5319 96.2316 58.8208 96.2124 60.0706C96.2307 60.1412 96.2713 60.2039 96.328 60.2496C96.3846 60.2952 96.4544 60.3212 96.527 60.3239Z" fill="#1A1818"/>
<path d="M115.558 56.6527C116.55 59.4843 118.201 63.7215 118.648 64.9127C119.056 65.928 119.192 66.0255 120.261 66.3967C120.689 66.5332 120.844 66.7482 120.844 66.963C120.844 67.0801 120.652 67.1779 120.378 67.1779C119.348 67.1779 118.609 67.0801 117.657 67.0801C116.782 67.0801 116.782 67.1192 116.16 67.1192C115.791 67.1192 115.616 67.0021 115.616 66.8653C115.616 66.7092 115.713 66.4944 116.063 66.3967C116.977 66.1235 117.055 65.9867 116.86 65.2836C116.724 64.7369 116.218 63.4289 115.985 62.8426C115.931 62.7577 115.856 62.688 115.768 62.6402C115.68 62.5924 115.58 62.568 115.48 62.5694C115.091 62.55 112.759 62.55 112.156 62.6085C112.059 62.6085 111.884 62.7842 111.845 62.8819C111.573 63.6825 111.048 65.1665 111.048 65.5765C111.048 65.8303 111.087 66.1024 112.02 66.3967C112.273 66.475 112.448 66.5531 112.448 66.7092C112.467 66.903 112.234 67.1388 111.786 67.1388C111.572 67.1388 110.737 67.0801 110.173 67.0801C109.512 67.0801 109.162 67.1779 108.424 67.1779C108.074 67.1779 107.782 67.0995 107.763 66.885C107.763 66.6896 107.937 66.4944 108.346 66.3967C109.317 66.1428 109.648 65.7323 109.842 65.3033C110.445 64.0144 112.485 58.8592 113.438 56.3208C113.501 56.1435 113.547 55.9603 113.574 55.7738C113.596 55.6897 113.643 55.6145 113.71 55.5593C113.924 55.4029 114.216 55.1881 114.41 55.0123C114.523 54.9035 114.665 54.8291 114.818 54.7978C115.014 54.7978 115.111 55.3445 115.558 56.6527ZM115.519 61.3586C115.285 60.3826 114.236 57.7852 114.1 57.4729C114.09 57.447 114.073 57.4247 114.05 57.4089C114.028 57.3931 114.001 57.3846 113.973 57.3846C113.946 57.3846 113.919 57.3931 113.897 57.4089C113.874 57.4247 113.857 57.447 113.847 57.4729C113.419 58.5273 112.855 60.07 112.428 61.3586C112.421 61.3806 112.418 61.4041 112.421 61.4272C112.424 61.4503 112.433 61.4724 112.446 61.4915C112.459 61.5106 112.477 61.5262 112.498 61.5371C112.518 61.548 112.541 61.5538 112.564 61.5541C113.522 61.6028 114.483 61.6028 115.441 61.5541C115.499 61.5541 115.558 61.4367 115.519 61.3586Z" fill="#1A1818"/>
<path d="M121.992 55.0311C122.77 55.0311 124.266 55.1482 124.85 55.1482C124.947 55.1482 125.219 55.4021 125.239 55.4411C125.804 56.2414 126.428 56.9986 127.104 57.7063C128.135 58.8194 131.789 63.0176 132.528 63.701C132.586 63.7597 132.703 63.662 132.722 63.5646C132.761 63.174 132.858 59.6396 132.761 58.0579C132.663 56.4174 132.644 56.1636 131.322 55.871C130.856 55.7733 130.778 55.5588 130.778 55.4414C130.778 55.3049 130.953 55.1291 131.361 55.1291C132.139 55.1291 132.215 55.1485 132.722 55.1485C133.519 55.1485 134.53 55.0314 134.919 55.0314C135.326 55.0314 135.521 55.2269 135.521 55.383C135.521 55.5001 135.462 55.6368 134.802 55.832C134.14 56.0471 133.869 56.379 133.83 56.8086C133.772 57.4331 133.655 61.5535 133.655 63.4475C133.655 64.3056 133.694 65.6149 133.694 66.5132C133.694 67.3334 133.519 67.4702 133.286 67.4702C132.983 67.3703 132.723 67.1708 132.547 66.9038C132.061 66.2007 131.05 64.9121 130.506 64.3067C129.767 63.4486 126.014 59.1125 125.16 58.1752C125.043 58.0778 124.966 58.1946 124.946 58.369C124.927 58.7989 124.868 59.6385 124.868 60.4781C124.868 61.3567 124.927 63.5048 124.946 64.0318C125.005 65.7503 125.102 65.9455 126.19 66.2973C126.638 66.4338 126.832 66.5705 126.832 66.8232C126.832 67.0577 126.463 67.1554 126.21 67.1554C125.666 67.1554 125.277 67.0774 124.81 67.0774C123.897 67.0774 122.711 67.1945 122.458 67.1945C122.147 67.1945 121.836 67.1164 121.836 66.8623C121.836 66.6865 122.011 66.5301 122.36 66.4327C123.623 66.1005 123.74 65.6125 123.798 64.8316C123.896 63.523 124.051 57.9388 124.051 57.3138C124.051 57.0599 123.915 56.7668 123.39 56.2785C123.117 55.9859 122.536 55.8491 122.165 55.7708C121.854 55.732 121.582 55.4976 121.582 55.2828C121.584 55.1297 121.74 55.0311 121.992 55.0311Z" fill="#1A1818"/>
<path d="M140.77 60.3239C142.675 60.3239 145.805 60.2846 146.97 60.3432C147.029 60.3432 147.223 60.1675 147.223 60.07C147.223 59.5441 147.223 56.9846 147.145 56.5747C147.145 56.2425 146.504 56.0083 146.076 55.8912C145.435 55.7154 145.298 55.5787 145.298 55.4419C145.298 55.2482 145.473 55.0906 145.882 55.0906C146.679 55.0906 147.476 55.1491 148.214 55.1491C148.972 55.1491 149.788 55.071 150.178 55.071C150.567 55.071 150.721 55.2274 150.721 55.4032C150.721 55.579 150.566 55.696 150.06 55.8134C149.263 55.9892 149.088 56.2624 149.068 56.7311C149.029 57.4536 148.99 59.1914 148.99 61.0076C148.99 62.6868 148.99 64.3466 149.068 65.1081C149.166 66.0457 149.399 66.1237 150.273 66.3579C150.701 66.4556 150.895 66.6508 150.895 66.8266C150.895 67.0414 150.701 67.1391 150.332 67.1391C149.963 67.1391 149.029 67.0804 148.31 67.0804C147.299 67.0804 146.561 67.1391 145.978 67.1391C145.511 67.1391 145.297 67.0023 145.297 66.8459C145.297 66.6508 145.472 66.4753 145.919 66.3579C146.93 66.1237 147.066 65.9089 147.144 65.0691C147.24 64.0828 147.266 63.091 147.222 62.101C147.183 61.4176 147.029 61.3785 147.008 61.3785C144.092 61.3785 141.06 61.3785 140.691 61.437C140.555 61.437 140.457 61.6324 140.457 61.6908C140.457 64.3075 140.477 64.991 140.516 65.2839C140.613 65.9089 140.846 66.1041 141.974 66.436C142.207 66.4947 142.421 66.6898 142.421 66.8459C142.421 67.061 142.246 67.1391 141.759 67.1391C141.196 67.1391 140.651 67.0804 139.816 67.0804C139.193 67.0804 138.066 67.1781 137.483 67.1781C137.055 67.1781 136.861 67.0998 136.861 66.8853C136.861 66.6707 137.075 66.514 137.444 66.4166C138.436 66.1628 138.591 65.8907 138.629 65.0497C138.687 64.1916 138.687 61.7885 138.687 58.9769C138.687 57.5122 138.648 56.8094 138.571 56.5356C138.493 56.2034 138.338 56.0479 137.268 55.7547C137.054 55.696 136.841 55.5789 136.841 55.3641C136.841 55.1884 137.093 55.0713 137.463 55.0713C138.59 55.0713 139.29 55.1493 139.815 55.1493C140.417 55.1493 140.689 55.0909 141.37 55.0909C141.68 55.0909 141.893 55.2077 141.893 55.4231C141.893 55.5792 141.641 55.7356 141.407 55.7943C140.766 55.9895 140.455 56.204 140.455 56.9265C140.455 57.5319 140.474 58.8208 140.455 60.0706C140.473 60.1413 140.514 60.2042 140.571 60.2498C140.628 60.2955 140.698 60.3214 140.77 60.3239Z" fill="#1A1818"/>
<path d="M44.9418 76.5473H40.9444V78.7726C40.9352 78.8835 40.9598 78.9947 41.015 79.0912C41.0881 79.1699 41.1849 79.2225 41.2905 79.241V79.3877H39.8224V79.241C39.9279 79.2223 40.0246 79.1697 40.0979 79.0912C40.1531 78.9947 40.1777 78.8835 40.1685 78.7726V73.9081C40.1784 73.7963 40.1537 73.6842 40.0979 73.587C40.0238 73.5101 39.9274 73.4587 39.8224 73.4403V73.293H41.2905V73.4403C41.1855 73.4586 41.089 73.5099 41.015 73.587C40.9592 73.6842 40.9345 73.7963 40.9444 73.9081V75.9541H44.9418V73.9081C44.9517 73.7963 44.927 73.6842 44.8712 73.587C44.7972 73.51 44.7007 73.4586 44.5957 73.4403V73.293H46.0635V73.4403C45.9579 73.4587 45.8612 73.5111 45.788 73.5898C45.7329 73.6862 45.7084 73.7973 45.7177 73.9081V78.7726C45.7084 78.8835 45.7329 78.9946 45.788 79.0912C45.8612 79.1699 45.9579 79.2225 46.0635 79.241V79.3877H44.5957V79.241C44.7013 79.2224 44.798 79.1699 44.8712 79.0912C44.9264 78.9947 44.951 78.8835 44.9418 78.7726V76.5473Z" fill="#CDA147"/>
<path d="M51.4114 73.1626C52.3553 73.1172 53.2834 73.4189 54.0219 74.0113C54.5872 74.5069 54.9535 75.1923 55.0523 75.9395C55.151 76.6866 54.9754 77.4443 54.5584 78.0709C53.9048 79.0358 52.8595 79.5183 51.4224 79.5183C50.4818 79.5625 49.5574 79.2606 48.8223 78.6693C48.4817 78.3873 48.2095 78.031 48.0265 77.6274C47.8435 77.2239 47.7545 76.7838 47.7662 76.3405C47.7583 75.7245 47.9379 75.1208 48.2809 74.6101C48.6538 74.0628 49.1908 73.6492 49.8138 73.4295C50.3268 73.248 50.8675 73.1577 51.4114 73.1626ZM51.4114 73.7938C51.0198 73.7765 50.6289 73.84 50.2628 73.9804C49.8966 74.1208 49.563 74.3351 49.2825 74.6101C48.8314 75.072 48.5787 75.6932 48.5787 76.3402C48.5787 76.9872 48.8314 77.6085 49.2825 78.0703C49.8724 78.5961 50.6336 78.8864 51.4221 78.8864C52.2107 78.8864 52.9719 78.5961 53.5617 78.0703C53.7883 77.8506 53.9676 77.5866 54.0887 77.2945C54.2098 77.0025 54.2701 76.6886 54.2658 76.3723C54.2764 76.0455 54.2194 75.7201 54.0982 75.4166C53.977 75.1131 53.7943 74.8383 53.5617 74.6095C53.2754 74.3367 52.9377 74.124 52.5684 73.9839C52.1992 73.8438 51.8058 73.7792 51.4114 73.7938Z" fill="#CDA147"/>
<path d="M62.544 73.6088L61.9483 74.795L61.8185 74.7297C61.8328 74.6579 61.842 74.5852 61.846 74.5121C61.846 74.4248 61.7287 74.3196 61.4939 74.1965C60.9298 73.9129 60.3044 73.7745 59.6739 73.7938C59.1675 73.7784 58.6652 73.8887 58.2113 74.1149C58.0345 74.1918 57.8836 74.3185 57.7769 74.4798C57.6703 74.641 57.6124 74.8298 57.6103 75.0234C57.6088 75.1926 57.662 75.3577 57.7619 75.494C57.8626 75.634 58.0047 75.7384 58.168 75.7924C58.347 75.8523 58.5325 75.8906 58.7205 75.9064C58.9193 75.9249 59.3455 75.9467 59.999 75.9718C60.4134 75.9785 60.8268 76.013 61.2365 76.075C61.4872 76.1162 61.7293 76.199 61.953 76.32C62.167 76.441 62.3419 76.6214 62.4567 76.8396C62.5796 77.0676 62.643 77.3232 62.6407 77.5826C62.647 77.8466 62.5873 78.108 62.4669 78.3428C62.3466 78.5776 62.1695 78.7783 61.9519 78.9265C61.3028 79.3508 60.5369 79.5584 59.7635 79.5197C59.2859 79.5154 58.8112 79.4459 58.3524 79.3129C57.8736 79.1808 57.4126 78.9908 56.9793 78.7471C56.9412 78.7183 56.8967 78.6993 56.8495 78.6918C56.7944 78.6918 56.7131 78.7553 56.6057 78.8825L56.4811 78.8008L57.17 77.6418L57.3001 77.7179C57.2893 77.7614 57.2819 77.7907 57.2783 77.8048C57.2624 77.8505 57.2531 77.8982 57.2507 77.9466C57.2507 78.0483 57.4349 78.1969 57.8032 78.3925C58.397 78.7159 59.0615 78.8861 59.737 78.8877C60.2622 78.9062 60.7841 78.7981 61.2591 78.5724C61.4466 78.4773 61.6068 78.3359 61.7248 78.1614C61.8361 78.0028 61.8966 77.8139 61.8981 77.6199C61.9001 77.4523 61.8489 77.2884 61.7518 77.1521C61.6572 77.0164 61.5228 76.9136 61.3674 76.8581C61.2063 76.8046 61.0401 76.7681 60.8714 76.7493C60.689 76.7277 60.345 76.7078 59.8395 76.6895C59.2438 76.6641 58.8177 76.6342 58.5612 76.5999C58.3137 76.5674 58.0703 76.5081 57.8355 76.423C57.5572 76.3256 57.314 76.1475 57.1367 75.9111C56.9575 75.6613 56.8644 75.3595 56.8713 75.0516C56.8673 74.7718 56.9387 74.4961 57.0779 74.2537C57.2171 74.0113 57.419 73.8113 57.6621 73.6747C58.2842 73.312 58.9962 73.1346 59.715 73.1635C60.5046 73.1702 61.284 73.3444 62.002 73.6747C62.0663 73.705 62.1334 73.7287 62.2023 73.7456C62.2602 73.7456 62.3288 73.6785 62.4082 73.5443L62.544 73.6088Z" fill="#CDA147"/>
<path d="M65.3086 76.6505V78.8219C65.3029 78.911 65.3287 78.9992 65.3816 79.071C65.4524 79.1416 65.5416 79.1906 65.639 79.2125V79.3866H64.1874V79.2125C64.289 79.1915 64.3828 79.1425 64.4582 79.071C64.5128 79 64.5397 78.9114 64.534 78.8219V73.8212C64.5373 73.7784 64.532 73.7354 64.5185 73.6948C64.505 73.6541 64.4836 73.6165 64.4555 73.5842C64.3783 73.5195 64.2861 73.4755 64.1874 73.4563V73.293H67.5455C67.8851 73.286 68.2247 73.3061 68.5611 73.3531C68.7803 73.3894 68.9908 73.4669 69.1814 73.5815C69.4057 73.7167 69.5863 73.9143 69.7014 74.1503C69.8294 74.4059 69.8944 74.6886 69.8909 74.9747C69.8951 75.2579 69.831 75.538 69.7041 75.791C69.5862 76.0269 69.4027 76.2235 69.1759 76.3568C68.9851 76.4741 68.7737 76.5535 68.5531 76.5907C68.2194 76.6376 67.8824 76.6576 67.5455 76.6505H65.3086ZM65.3086 76.0576H67.4427C67.7287 76.0636 68.0148 76.0482 68.2985 76.0114C68.4663 75.9867 68.627 75.9264 68.7697 75.8345C68.8892 75.7251 68.9846 75.5919 69.0499 75.4434C69.1152 75.2949 69.1489 75.1344 69.1489 74.972C69.1489 74.8097 69.1152 74.6491 69.0499 74.5006C68.9846 74.3521 68.8892 74.219 68.7697 74.1096C68.6278 74.0179 68.4682 73.9575 68.3013 73.9325C68.0167 73.8956 67.7298 73.8802 67.443 73.8862H65.3089L65.3086 76.0576Z" fill="#CDA147"/>
<path d="M71.7344 78.7726V73.9081C71.7443 73.7964 71.7198 73.6842 71.6641 73.587C71.59 73.5101 71.4935 73.4587 71.3886 73.4403V73.293H72.8547V73.4403C72.7497 73.4586 72.6532 73.5099 72.5792 73.587C72.5233 73.6842 72.4986 73.7963 72.5087 73.9081V78.7726C72.4993 78.8836 72.5239 78.9947 72.5792 79.0912C72.6524 79.1699 72.7491 79.2225 72.8547 79.241V79.3877H71.3869V79.241C71.4924 79.2223 71.5891 79.1697 71.6624 79.0912C71.7181 78.9948 71.7432 78.8837 71.7344 78.7726Z" fill="#CDA147"/>
<path d="M77.5048 73.9189V78.7726C77.4957 78.8832 77.5192 78.994 77.5724 79.0912C77.6462 79.1712 77.7446 79.2239 77.8518 79.241V79.3877H76.3836V79.241C76.4893 79.2225 76.586 79.1699 76.6592 79.0912C76.7145 78.9947 76.7391 78.8836 76.7297 78.7726V73.9189H74.7532C74.642 73.909 74.5304 73.9337 74.4336 73.9898C74.356 74.0659 74.3048 74.1651 74.2876 74.2727H74.1412V72.9777H74.2876C74.3056 73.0833 74.3568 73.1803 74.4336 73.2545C74.5303 73.3107 74.642 73.3355 74.7532 73.3254H79.4819C79.5932 73.3356 79.7048 73.3108 79.8015 73.2545C79.8782 73.1801 79.9295 73.0832 79.9481 72.9777H80.0939V74.2727H79.9481C79.9302 74.1646 79.8779 74.0654 79.7991 73.9898C79.7029 73.9344 79.5923 73.9097 79.4819 73.9189H77.5048Z" fill="#CDA147"/>
<path d="M85.7077 77.6747H82.5284L82.068 78.699C82.0213 78.7867 81.9919 78.8827 81.9812 78.9816C81.9812 79.1054 82.075 79.1926 82.2628 79.2432V79.3899H80.7679V79.2432C80.8968 79.2257 81.016 79.1653 81.1066 79.0716C81.227 78.916 81.3247 78.7439 81.3967 78.5606L83.4063 74.1747C83.4911 74.0189 83.548 73.8494 83.5744 73.6739C83.5744 73.5471 83.484 73.4693 83.3033 73.4403V73.293H85.0637V73.4403C84.8833 73.4801 84.7931 73.558 84.7931 73.6739C84.8394 73.8765 84.9123 74.0719 85.0097 74.2552L86.9385 78.4722C87.0246 78.6786 87.1376 78.8726 87.2744 79.0491C87.3671 79.1539 87.4943 79.2216 87.6327 79.2399V79.3866H86.0513V79.2399C86.2207 79.2036 86.3059 79.1416 86.3059 79.0547C86.2786 78.9295 86.2348 78.8085 86.1758 78.6948L85.7077 77.6747ZM85.4531 77.0815L84.1263 74.0997L82.7883 77.0815H85.4531Z" fill="#CDA147"/>
<path d="M89.9293 78.7945H93.6288C93.7409 78.8041 93.8533 78.7795 93.9512 78.7239C94.0303 78.6484 94.0826 78.5491 94.1003 78.441H94.2463V79.7359H94.1003C94.0818 79.6299 94.0295 79.5327 93.9512 79.4591C93.8534 79.4032 93.741 79.3785 93.6288 79.3882H88.809V79.2415C88.9146 79.223 89.0113 79.1704 89.0845 79.0918C89.1397 78.9952 89.1643 78.8841 89.1551 78.7732V73.9081C89.1649 73.7963 89.1403 73.6842 89.0845 73.587C89.0104 73.51 88.914 73.4586 88.809 73.4403V73.293H90.2768V73.4403C90.1718 73.4586 90.0753 73.5099 90.0013 73.587C89.9453 73.6842 89.9207 73.7963 89.9307 73.9081L89.9293 78.7945Z" fill="#CDA147"/>
<path d="M95.906 78.7726V73.9081C95.9159 73.7963 95.8912 73.6842 95.8354 73.587C95.7614 73.51 95.6649 73.4586 95.5599 73.4403V73.293H97.0277V73.4403C96.9227 73.4586 96.8262 73.5099 96.7522 73.587C96.6963 73.6842 96.6716 73.7963 96.6817 73.9081V78.7726C96.6723 78.8836 96.6969 78.9947 96.7522 79.0912C96.8254 79.1699 96.9221 79.2225 97.0277 79.241V79.3877H95.5599V79.241C95.6655 79.2224 95.7622 79.1699 95.8354 79.0912C95.8906 78.9947 95.9152 78.8835 95.906 78.7726Z" fill="#CDA147"/>
<path d="M101.687 73.9189V78.7726C101.678 78.8832 101.702 78.994 101.755 79.0912C101.829 79.1712 101.927 79.2239 102.034 79.241V79.3877H100.567V79.241C100.672 79.2224 100.769 79.1699 100.842 79.0912C100.897 78.9946 100.922 78.8835 100.912 78.7726V73.9189H98.9356C98.8243 73.9089 98.7127 73.9336 98.6159 73.9898C98.5384 74.066 98.4871 74.1651 98.4696 74.2727H98.3233V72.9777H98.4696C98.4879 73.0833 98.5391 73.1802 98.6159 73.2545C98.7126 73.3108 98.8243 73.3356 98.9356 73.3254H103.664C103.775 73.3355 103.887 73.3108 103.984 73.2545C104.06 73.1801 104.112 73.0832 104.13 72.9777H104.276V74.2727H104.129C104.112 74.1645 104.059 74.0652 103.98 73.9898C103.884 73.9343 103.774 73.9096 103.663 73.9189H101.687Z" fill="#CDA147"/>
<path d="M108.39 76.6995V78.7726C108.381 78.8832 108.404 78.994 108.457 79.0912C108.531 79.1711 108.629 79.2239 108.737 79.241V79.3877H107.269V79.241C107.374 79.2223 107.471 79.1697 107.544 79.0912C107.599 78.9946 107.624 78.8835 107.614 78.7726V76.6995L105.746 74.2508C105.594 74.0382 105.426 73.838 105.242 73.6523C105.131 73.553 104.999 73.4805 104.856 73.4403V73.293H106.568V73.4403C106.409 73.4656 106.33 73.5345 106.33 73.6471C106.34 73.7742 106.391 73.8946 106.476 73.9898L108.074 76.0955L109.52 73.9953C109.6 73.8983 109.652 73.7818 109.672 73.6579C109.672 73.5344 109.591 73.4619 109.428 73.4403V73.293H111.01V73.4403C110.841 73.4986 110.687 73.5942 110.56 73.7201C110.354 73.9375 110.165 74.1715 109.997 74.4197L108.39 76.6995Z" fill="#CDA147"/>
</svg>
